<svg width="21" height="25" viewBox="0 0 21 25" fill="none" xmlns="http://www.w3.org/2000/svg">
<path d="M10.5001 0.741211C8.15372 0.754279 5.90814 1.69667 4.25516 3.362C2.60218 5.02732 1.67653 7.27985 1.68092 9.62626C1.68092 16.5844 9.66841 23.7732 9.99779 24.0696C10.1301 24.1917 10.3036 24.2595 10.4836 24.2595C10.6637 24.2595 10.8371 24.1917 10.9695 24.0696C11.3153 23.7732 19.3028 16.5844 19.3028 9.62626C19.3072 7.28268 18.3838 5.03263 16.7344 3.36778C15.085 1.70292 12.8436 0.758615 10.5001 0.741211V0.741211Z" stroke="white" stroke-width="1.48221" stroke-linecap="round" stroke-linejoin="round"/>
<path d="M10.5001 13.4636C9.72811 13.4636 8.97348 13.2346 8.33161 12.8058C7.68974 12.3769 7.18946 11.7673 6.89404 11.0541C6.59862 10.3409 6.52132 9.55606 6.67192 8.79892C6.82253 8.04178 7.19427 7.34631 7.74014 6.80044C8.286 6.25457 8.98148 5.88283 9.73862 5.73223C10.4958 5.58162 11.2806 5.65892 11.9938 5.95434C12.707 6.24976 13.3166 6.75004 13.7454 7.39191C14.1743 8.03378 14.4033 8.78842 14.4033 9.56039C14.4011 10.5949 13.9892 11.5864 13.2576 12.3179C12.5261 13.0495 11.5346 13.4614 10.5001 13.4636V13.4636Z" stroke="white" stroke-width="1.48221" stroke-linecap="round" stroke-linejoin="round"/>
</svg>
