<svg width="41" height="24" viewBox="0 0 41 24" fill="none" xmlns="http://www.w3.org/2000/svg">
<path d="M7.1021 23.2295C8.63831 23.2295 9.88365 21.9825 9.88365 20.4442C9.88365 18.906 8.63831 17.6589 7.1021 17.6589C5.5659 17.6589 4.32056 18.906 4.32056 20.4442C4.32056 21.9825 5.5659 23.2295 7.1021 23.2295Z" stroke="white" stroke-width="1.66" stroke-linecap="round" stroke-linejoin="round"/>
<path d="M22.9847 23.2295C24.5209 23.2295 25.7662 21.9825 25.7662 20.4442C25.7662 18.906 24.5209 17.6589 22.9847 17.6589C21.4485 17.6589 20.2031 18.906 20.2031 20.4442C20.2031 21.9825 21.4485 23.2295 22.9847 23.2295Z" stroke="white" stroke-width="1.66" stroke-linecap="round" stroke-linejoin="round"/>
<path d="M26.5266 20.4256H30.3559C30.71 20.4256 31.0496 20.2848 31.3 20.034C31.5503 19.7833 31.691 19.4432 31.691 19.0887V13.5181" stroke="white" stroke-width="1.8" stroke-linecap="round" stroke-linejoin="round"/>
<path d="M25.145 0.835693H13.7407C13.3866 0.835693 13.047 0.97655 12.7966 1.22728C12.5462 1.478 12.4055 1.81806 12.4055 2.17264V19.1073C12.4104 19.4586 12.5532 19.7939 12.8031 20.0406C13.0529 20.2874 13.3897 20.4257 13.7407 20.4256H19.5726" stroke="white" stroke-width="1.8" stroke-linecap="round" stroke-linejoin="round"/>
<path d="M9.52204 5.49634H6.25836C5.85223 5.49657 5.45249 5.59761 5.09491 5.79042C4.73732 5.98323 4.43304 6.26178 4.20929 6.60117L1.23303 11.1412C0.968374 11.5467 0.829638 12.0216 0.834344 12.506V18.5037C0.841653 19.0159 1.05001 19.5047 1.41437 19.8644C1.77873 20.224 2.26981 20.4256 2.78143 20.4255H3.47681" stroke="white" stroke-width="1.8" stroke-linecap="round" stroke-linejoin="round"/>
<path d="M31.691 3.22177V2.17264C31.691 1.81806 31.5504 1.478 31.3 1.22728C31.0496 0.97655 30.71 0.835693 30.3559 0.835693H23.2537" stroke="white" stroke-width="1.8" stroke-linecap="round" stroke-linejoin="round"/>
<path d="M40.1655 6.47119H30.1982" stroke="white" stroke-width="1.8" stroke-linecap="round" stroke-linejoin="round"/>
<path d="M37.5508 10.2593H30.1982" stroke="white" stroke-width="1.8" stroke-linecap="round" stroke-linejoin="round"/>
<path d="M39.0249 15.1614H35.2976" stroke="white" stroke-width="1.8" stroke-linecap="round" stroke-linejoin="round"/>
</svg>
